<?xml version="1.0" encoding="UTF-8" standalone="no"?>
<svg
   viewBox="0 0 24 24"
   fill="none"
   color="#fff"
   version="1.1"
   id="svg1"
   sodipodi:docname="logo.svg"
   inkscape:version="1.4.3 (0d15f75, 2025-12-25)"
   xmlns:inkscape="http://www.inkscape.org/namespaces/inkscape"
   xmlns:sodipodi="http://sodipodi.sourceforge.net/DTD/sodipodi-0.dtd"
   xmlns="http://www.w3.org/2000/svg"
   xmlns:svg="http://www.w3.org/2000/svg">
  <defs
     id="defs1" />
  <path
     fill="currentColor"
     d="m 17.822655,10.985359 c -0.355965,-0.162176 -0.72294,-0.298684 -1.086562,-0.4425 -0.952227,1.509676 -2.024963,3.254009 -2.931387,4.791687 -0.423515,0.719531 -1.024687,1.772812 -1.162031,2.035781 -0.02859,0.05438 -0.03047,0.0532 -0.09938,-0.07031 -0.132667,-0.234578 -0.24232,-0.423699 -0.377421,-0.656875 -0.525466,-0.0032 -1.123694,-0.0078 -1.631641,-0.0019 0.111176,0.212867 2.036349,3.801802 2.091093,3.802265 1.732066,-3.05399 3.555411,-6.354948 5.197329,-9.458148 z m -4.245056,4.250589 c -2.829831,-0.05967 -5.6616916,-0.03173 -8.4911714,-0.08515 2.3990715,-3.50813 4.8177473,-7.0059164 7.1953104,-10.5297657 0,-0.028896 -9.7265624,-0.023576 -9.7265624,-0.0082 0,0.00703 0.032812,0.057187 0.072656,0.1113282 0.9854983,1.4226743 2.1868225,2.6838922 3.1642396,4.1121184 H 7.0743368 C 6.9729926,8.6430375 4.6770924,5.7706719 4.5850977,5.6138432 c -0.013594,-0.023437 0.575625,-0.029297 2.9139844,-0.029297 1.6120313,0 2.9310929,0.00797 2.9308589,0.017578 -2.35e-4,0.00961 -0.09328,0.1441406 -0.206953,0.2988281 C 10.109081,6.0556396 9.8472854,6.4193896 9.6408006,6.7095459 9.4343162,6.9997021 9.0722068,7.5059521 8.8359568,7.8345459 8.5997068,8.1631396 8.3613474,8.4954834 8.3060349,8.5728271 8.1883787,8.7375928 7.3638474,9.8829834 6.9140818,10.506421 5.5254724,12.448728 4.117687,14.377409 2.7424412,16.329233 c 0,0.0073 2.2546947,0.01941 5.0107031,0.01312 l 5.1357027,-0.01173 c 0.222514,-0.365758 0.428905,-0.740676 0.637971,-1.114218 z m 5.325938,1.053204 c 1.258359,-0.232031 2.062968,-0.926718 2.40914,-2.079609 0.120703,-0.401719 0.144375,-0.571875 0.144141,-1.03125 0,-0.457734 -0.02742,-0.630703 -0.167344,-1.054688 -0.255939,-0.776715 -0.750705,-1.399684 -1.507736,-1.8982 C 19.483378,10.029233 18.662597,9.6291554 17.930175,9.3235303 17.157441,9.0012646 17.07541,8.9644678 16.636425,8.7479053 15.636347,8.2540771 15.175566,7.7609521 15.070566,7.0725928 c -0.06914,-0.4535157 0.0525,-0.9536719 0.324609,-1.3335938 0.170391,-0.238125 0.376875,-0.4078125 0.67125,-0.5519531 0.50836,-0.2489063 1.151485,-0.3084375 1.91086,-0.1767188 0.338671,0.058828 0.844218,0.2088282 1.035468,0.3072657 l 0.06328,0.032344 -0.160313,0.3928125 c -0.08836,0.2158594 -0.203437,0.4973438 -0.255937,0.6255469 -0.05273,0.1282031 -0.09328,0.2346094 -0.09047,0.2364844 0.101719,0.065625 1.004297,0.5317968 1.012031,0.5226562 0.0035,-0.00422 0.07781,-0.1764844 0.164766,-0.3827344 0.08719,-0.20625 0.203437,-0.4804687 0.25875,-0.609375 0.231328,-0.5407031 0.550312,-1.2975 0.594375,-1.4102343 L 20.646815,4.6039209 20.431424,4.4907178 C 19.705799,4.1093896 19.11494,3.9155615 18.305174,3.7925146 c -0.351797,-0.053437 -1.074609,-0.072656 -1.417969,-0.037734 -1.676484,0.1701562 -2.82914,1.1299218 -3.068437,2.5546875 -0.05883,0.3508593 -0.04969,0.8355468 0.0225,1.1922656 0.165,0.8151562 0.6,1.438125 1.38375,1.9823437 0.4425,0.307032 0.857344,0.5167966 1.931719,0.9757036 1.503281,0.642421 2.067422,0.966328 2.445,1.40414 0.204609,0.237187 0.359297,0.556172 0.424922,0.876797 0.07594,0.37125 0.03,0.988125 -0.09774,1.312031 -0.251953,0.638672 -0.869297,1.025156 -1.784531,1.116797 -0.133359,0.01336 -0.672891,0.02438 -1.198828,0.02438 l -1.053967,-0.0039 c -0.222234,0.37344 -0.429004,0.75538 -0.637266,1.136719 0,0.0077 0.849123,0.01422 1.767639,0.0098 1.433203,-0.0073 1.699922,-0.01383 1.881563,-0.04734 z m -7.793674,-1.371794 c 0,-0.01533 -2.5920121,-4.266912 -2.6068749,-4.24539 -0.2729128,0.395191 -0.5355307,0.797408 -0.8027344,1.196484 0.574538,0.955384 1.2539592,2.104965 1.8463279,3.049141 0.037734,0.02391 1.5632814,0.02367 1.5632814,-2.35e-4 z"
     id="path1"
     style="fill:#ffffff;stroke-width:0.0234375"
     sodipodi:nodetypes="scccccccssssccccsscssccssccsscccccccccccccccccccccccccccccscccccssccsscc" />
</svg>
